<svg id="Layer_1" data-name="Layer 1" xmlns="http://www.w3.org/2000/svg" viewBox="0 0 512 512"><title>right_arrow</title><path d="M329.75,303.54s-6.19-.5,4.22-.47l8.35-.19,6.11-.49,6.06.13s1.75,1.3,5.21,15.57a28.26,28.26,0,0,1,3.48,13.42s-1.78,55.88-5.45,60.08c0,0,5.23-35,3.57-37.25,0,0-4.29,33.51-7.61,36.08,0,0,4.9-32.49.67-35.39,0,0-4.52,29.91-8.74,33.54,0,0,1.68-5.74,1.16-7.29L345.51,384l.17-4.32,1-2.49s-2.89,6.75-4.38,7.22c0,0,1.76,3.07,1.12-9.09C343.4,375.31,353.62,346.51,329.75,303.54Z" fill="#231f20"/><path d="M320.85,112.81s-7.76-.52,5.28-.5l10.44-.21,7.66-.54,7.61.16s2.18,1.39,6.51,16.9a27.71,27.71,0,0,1,4.37,14.58s-2.26,60.67-6.83,65.22c0,0,6.55-38,4.46-40.43,0,0-5.37,36.38-9.53,39.18,0,0,6.15-35.3.82-38.44,0,0-5.65,32.48-10.93,36.42,0,0,2.11-6.24,1.47-7.91l-1.6,2.91.22-4.68,1.23-2.69s-3.64,7.31-5.49,7.83c0,0,2.21,3.35,1.38-9.88C337.94,190.73,350.77,159.48,320.85,112.81Z" fill="#231f20"/><path d="M1.31,212.67s-4.46-.62,3.05-.58l6-.25,4.41-.62,4.38.18s1.25,1.64,3.77,19.79a57.68,57.68,0,0,1,2.5,17.06s-1.29,71-3.93,76.35c0,0,3.78-44.53,2.57-47.34,0,0-3.09,42.59-5.49,45.85,0,0,3.54-41.29.48-45,0,0-3.25,38-6.29,42.62,0,0,1.21-7.3.84-9.24l-.93,3.4.14-5.47.71-3.17s-2.1,8.57-3.17,9.17c0,0,1.28,3.9.79-11.56C11.15,303.88,18.55,267.31,1.31,212.67Z" fill="#231f20"/><path d="M11.13,230.31s-1.83,8.49-1.72-5.77l-.74-11.43-1.82-8.36.54-8.32s4.81-2.38,58.24-7.13a255.71,255.71,0,0,1,50.22-4.76S324.93,187,340.65,192c0,0-131.11-7.17-139.37-4.88,0,0,125.37,5.87,135,10.41,0,0-121.61-6.73-132.44-.92,0,0,111.94,6.19,125.49,12,0,0-21.48-2.31-27.22-1.61l10,1.75L296,208.49l-9.31-1.34s25.23,4,27,6c0,0,11.5-2.42-34-1.51C279.65,211.63,171.95,197.61,11.13,230.31Z" fill="#231f20"/><path d="M15.11,338s-2.11,8.48-2-5.77l-.86-11.41-2.1-8.38.61-8.31s1.39-.59,10.49-1.79c4.57-.6,11-1.34,20.25-2.23,2.31-.22,4.78-.45,7.43-.69l.5,0,.25,0,.13,0h.06c0,63.72,0,17.66,0,31.89h0l-1,.09-2.09.18-4.41.39q-4.54.4-9.69.81l-5.3.44-1.38.1-.7.05-.34,0h-.17c0-16.1,0,36.06,0-36.09l0,0h.09l2.86-.22a339.29,339.29,0,0,1,58-4.76s241.71,2.46,259.87,7.47c0,0-151.55-7.16-161.1-4.89,0,0,144.92,5.87,156.05,10.42,0,0-140.58-6.72-153.08-.92,0,0,129.39,6.19,145.05,12,0,0-24.83-2.31-31.47-1.6l11.57,1.73L294,316.18l-10.77-1.33s29.17,4,31.2,6c0,0,13.3-2.41-39.35-1.51,0,0-31.12-3.5-85.47-2.93-27.18.3-60.17,1.62-98,4.9-18.92,1.64-39,3.77-60.22,6.53l-4,.52-2,.27-.5.07h-.13c0,24-.14-32.68,0-26.85l.25,0,1-.13,8.1-1.11,8.2-1.19,4.13-.61,2.09-.3,1-.15.24-.05c0,15.18.13-34,.11,34.06l-.13,0-.53.08Q32.55,335,15.11,338Z" fill="#231f20"/><path d="M374.18,406.93s5.93,7.41-5.54-3.77l-9.6-8.58-7.73-5.72-6.45-6.72s.55-4.16,24.74-31.25a105.19,105.19,0,0,1,22.23-25.57c-.17-.1,27.7-21.93,53.94-45.49,26.9-23.36,48.61-49.88,53-52.77.2.06-12.29,15.71-28,30.56-15.45,15-33.36,29.5-34.33,32.23,0,0,16.36-12.81,32.28-26.74,16.22-13.78,30.65-29.45,34.38-30.91.25.1-12.06,15-26.6,29.54-14.36,14.69-30.66,29.35-30.77,34,0,0,15-11.45,30.29-24.23,15.52-12.59,30.49-27.43,36-29.65,0,0-10.47,10.33-12.34,13.6l5.81-4.19-6.9,8.31-5.23,3.94c.11.16,14.41-10.58,17.09-10.48-.24-.18,2.87-7.24-16,17,0,0-14.9,11.6-37.47,33.85C434.56,326.18,402.38,359.26,374.18,406.93Z" fill="#231f20"/><path d="M335.46,119.13s-8.7,2.45,4.91-3.54l10.68-5.27,7.51-4.46,8.1-3.19c.64-.24,1.82,2,23.65,22a109,109,0,0,1,22.77,17.49c-.22.08,20.68,21.31,44.59,43,23.76,21.62,48.78,45.59,50.39,51.07.11-1-55.52-57.39-60.4-58.68-.48-.06,53.4,52.78,54.36,60.79.22-.72-51.22-53-59.93-52.76-.32,0,47.11,48,48.76,57.89,0,0-8-10.26-11.12-12l3.32,5.2-7.15-6.51-3.32-4.61s8.7,12.81,8,15c-.06,0,7,2.68-14.4-14.39,0,0-9.95-13-31.84-30.95-10.88-9.07-24.72-19.31-41.32-31C376.58,152.07,356.73,140.86,335.46,119.13Z" fill="#231f20"/></svg>